<?xml version="1.0" encoding="UTF-8" standalone="no"?>
<!-- Created with Inkscape (http://www.inkscape.org/) -->

<svg
   xmlns:dc="http://purl.org/dc/elements/1.1/"
   xmlns:cc="http://creativecommons.org/ns#"
   xmlns:rdf="http://www.w3.org/1999/02/22-rdf-syntax-ns#"
   xmlns:svg="http://www.w3.org/2000/svg"
   xmlns="http://www.w3.org/2000/svg"
   xmlns:sodipodi="http://sodipodi.sourceforge.net/DTD/sodipodi-0.dtd"
   xmlns:inkscape="http://www.inkscape.org/namespaces/inkscape"
   width="37.739433mm"
   height="13.020661mm"
   viewBox="0 0 133.7224 46.136201"
   id="svg4529"
   version="1.1"
   inkscape:version="0.91 r13725"
   sodipodi:docname="akangtth1.svg">
  <defs
     id="defs4531" />
  <sodipodi:namedview
     id="base"
     pagecolor="#ffffff"
     bordercolor="#666666"
     borderopacity="1.0"
     inkscape:pageopacity="0.0"
     inkscape:pageshadow="2"
     inkscape:zoom="2.8"
     inkscape:cx="-70.749721"
     inkscape:cy="14.745431"
     inkscape:document-units="px"
     inkscape:current-layer="layer1"
     showgrid="false"
     fit-margin-top="0"
     fit-margin-left="0"
     fit-margin-right="0"
     fit-margin-bottom="0"
     inkscape:window-width="1366"
     inkscape:window-height="714"
     inkscape:window-x="0"
     inkscape:window-y="283"
     inkscape:window-maximized="1" />
  <metadata
     id="metadata4534">
    <rdf:RDF>
      <cc:Work
         rdf:about="">
        <dc:format>image/svg+xml</dc:format>
        <dc:type
           rdf:resource="http://purl.org/dc/dcmitype/StillImage" />
        <dc:title></dc:title>
      </cc:Work>
    </rdf:RDF>
  </metadata>
  <g
     inkscape:label="Layer 1"
     inkscape:groupmode="layer"
     id="layer1"
     transform="translate(146.8612,-392.15125)">
    <path
       inkscape:connector-curvature="0"
       id="path4516"
       style="font-style:normal;font-variant:normal;font-weight:bold;font-stretch:normal;font-size:27.19113541px;line-height:125%;font-family:'Trebuchet MS';-inkscape-font-specification:'Trebuchet MS Bold';letter-spacing:-2px;word-spacing:0px;display:inline;fill:#4a8b71;fill-opacity:1;stroke:none;stroke-width:1px;stroke-linecap:butt;stroke-linejoin:miter;stroke-opacity:1"
       d="m -28.51567,438.28745 -1.12854,-1.44719 q 2.42968,-1.81894 2.42968,-2.85453 0,-0.39831 -0.27882,-0.78334 -1.26131,-0.61074 -1.26131,-1.71273 0,-0.79661 0.66385,-1.31441 0.66385,-0.53108 1.64634,-0.53108 0.9161,0 1.59323,0.70368 0.6904,0.6904 0.6904,1.60651 0,1.68617 -0.79662,3.06696 -0.78334,1.39408 -3.55821,3.26613 z m -6.41757,-4.96557 0,-19.45069 3.452,0 0,19.45069 -3.452,0 z m -10.5998,-7.15626 0,7.15626 -3.452,0 0,-19.43741 q 3.452,-0.14605 4.03619,-0.14605 4.60709,0 6.7314,1.42063 2.13758,1.40735 2.13758,4.40794 0,6.69157 -7.88649,6.69157 -0.58419,0 -1.56668,-0.0929 z m 0,-9.29385 0,6.22688 q 0.87628,0.0929 1.3808,0.0929 2.36329,0 3.452,-0.78334 1.08871,-0.79662 1.08871,-2.57572 0,-3.02714 -4.87263,-3.02714 -0.54435,0 -1.04888,0.0664 z m -19.88036,-3.00058 3.45199,0 0,13.18398 q 0,1.56668 0.95594,2.54917 0.95594,0.98249 2.62883,0.98249 1.87205,0 2.90765,-0.95594 1.04888,-0.96921 1.04888,-2.6421 l 0,-13.1176 3.452,0 0,13.38314 q 0,3.00058 -2.0181,4.70003 -2.00481,1.69944 -5.36387,1.69944 -3.38562,0 -5.23111,-1.65961 -1.83221,-1.65962 -1.83221,-4.75314 l 0,-13.36986 z m -9.90094,-0.27882 q 0.79661,0 1.35424,0.57091 0.57091,0.55763 0.57091,1.35425 0,0.79661 -0.57091,1.36752 -0.55763,0.55763 -1.35424,0.55763 -0.79662,0 -1.36753,-0.55763 -0.55763,-0.57091 -0.55763,-1.36752 0,-0.79662 0.55763,-1.35425 0.57091,-0.57091 1.36753,-0.57091 z m -1.71273,19.72951 0,-11.49782 -1.81894,0 0,-2.72176 5.178,0 0,14.21958 -3.35906,0 z m -5.78027,0 0,-8.21842 q 0,-1.81893 -0.70368,-2.65538 -0.6904,-0.83645 -2.27035,-0.83645 -0.73023,0 -1.56668,0.41159 -0.82317,0.41158 -1.28786,1.02232 l 0,10.27634 -3.31923,0 0,-14.21958 2.38984,0 0.61074,1.32769 q 1.35425,-1.59323 3.99636,-1.59323 2.53589,0 3.99635,1.52684 1.47374,1.51357 1.47374,4.23534 l 0,8.72294 -3.31923,0 z m -14.0518,0 0,-8.90882 q 0,-2.80143 -2.50934,-2.80143 -0.74351,0 -1.43391,0.43814 -0.6904,0.43814 -0.96921,1.00905 l 0,10.26306 -3.31923,0 0,-9.42662 q 0,-1.04887 -0.65057,-1.65961 -0.65057,-0.62402 -1.83222,-0.62402 -0.62401,0 -1.36752,0.4647 -0.73023,0.46469 -1.06215,1.02232 l 0,10.22323 -3.31923,0 0,-14.21958 2.28363,0 0.67712,1.24803 q 1.3808,-1.51357 3.57149,-1.51357 2.82799,0 4.26189,1.54012 0.62402,-0.70368 1.73928,-1.11526 1.11526,-0.42486 2.23052,-0.42486 2.37657,0 3.69099,1.36752 1.32769,1.35425 1.32769,3.73082 l 0,9.38678 -3.31923,0 z m -21.39394,0.0133 0,-1.19493 q -0.70367,0.59746 -1.93843,1.02233 -1.23475,0.42486 -2.27035,0.42486 -4.95229,0 -4.95229,-5.25766 l 0,-9.22746 3.31923,0 0,8.97519 q 0,2.73505 2.45623,2.73505 1.12854,0 2.09775,-0.58418 0.96922,-0.58419 1.28786,-1.35425 l 0,-9.77181 3.31923,0 0,14.23286 -3.31923,0 z m -14.60942,-19.53036 3.31923,-0.79661 0,15.98541 q 0,2.62883 1.56667,3.13336 -0.77006,1.46046 -2.62883,1.46046 -2.25707,0 -2.25707,-3.13336 l 0,-16.64926 z m -5.15627,18.09645 q -0.45141,0.74351 -1.57995,1.22148 -1.11526,0.46469 -2.33674,0.46469 -2.2969,0 -3.61132,-1.14182 -1.31442,-1.15509 -1.31442,-3.26612 0,-2.46951 1.8455,-3.86358 1.85877,-1.39408 5.27093,-1.39408 0.58419,0 1.3808,0.19915 0,-2.50934 -3.17318,-2.50934 -1.87205,0 -3.13335,0.62402 l -0.71696,-2.57572 q 1.71273,-0.82317 4.07602,-0.82317 3.25284,0 4.76641,1.48701 1.51357,1.47374 1.51357,5.60286 l 0,3.04042 q 0,2.84126 1.14182,3.57149 -0.41159,0.71695 -0.91611,0.87628 -0.50452,0.1726 -1.15509,0.1726 -0.71696,0 -1.28786,-0.53108 -0.57091,-0.53108 -0.77007,-1.15509 z m -0.31864,-5.27094 q -0.84972,-0.1726 -1.27459,-0.1726 -3.92996,0 -3.92996,2.57572 0,1.91188 2.21724,1.91188 2.98731,0 2.98731,-2.98731 l 0,-1.32769 z m 104.1216,-28.11414 2.71769,0 4.22978,-5.61928 -3.84154,0 -3.10593,5.61928 z m -23.52313,0.28338 2.71769,0 4.22978,-5.61927 -3.84154,0 -3.10593,5.61927 z m 41.26763,13.66537 0,-8.76277 q 0,-1.31442 -0.82317,-2.11103 -0.82316,-0.79662 -2.15086,-0.79662 -0.82317,0 -1.65961,0.45142 -0.83645,0.43814 -1.19492,1.00904 l 0,10.20996 -3.37234,0 0,-19.51708 3.37234,-0.79661 0,6.99694 q 1.28786,-1.16837 3.54493,-1.16837 2.66866,0 4.1424,1.48701 1.47374,1.47374 1.47374,4.23534 l 0,8.76277 -3.33251,0 z m -10.12182,-6.09411 -10.15685,0 q 0.0929,1.69945 1.16837,2.64211 1.07543,0.94266 2.89437,0.94266 2.27036,0 3.452,-1.18165 l 1.28786,2.5359 q -1.75255,1.42063 -5.2311,1.42063 -3.25285,0 -5.15145,-1.8986 -1.88532,-1.91188 -1.88532,-5.32405 0,-3.35906 2.0712,-5.44354 2.08447,-2.08447 4.99212,-2.08447 3.09352,0 4.96557,1.84549 1.87204,1.84549 1.87204,4.70003 0,0.61074 -0.27881,1.84549 z m -10.03735,-2.49606 6.98366,0 q -0.3452,-3.12008 -3.452,-3.12008 -2.84126,0 -3.53166,3.12008 z m -10.93173,-2.96075 -1.64633,0 0,-2.66867 1.64633,0 0,-2.89436 3.31923,-1.22148 0,4.11584 3.90342,0 0,2.66867 -3.90342,0 0,6.22687 q 0,1.52685 0.47797,2.16414 0.47797,0.62402 1.6729,0.62402 1.19492,0 2.23052,-0.65057 l 0,3.05369 q -1.15509,0.39831 -3.29268,0.39831 -2.12431,0 -3.26612,-1.19493 -1.14182,-1.2082 -1.14182,-3.42544 l 0,-7.19609 z m -1.42544,5.45681 -10.15685,0 q 0.0929,1.69945 1.16837,2.64211 1.07543,0.94266 2.89437,0.94266 2.27035,0 3.452,-1.18165 l 1.28786,2.5359 q -1.75255,1.42063 -5.23111,1.42063 -3.25284,0 -5.15144,-1.8986 -1.88533,-1.91188 -1.88533,-5.32405 0,-3.35906 2.0712,-5.44354 2.08448,-2.08447 4.99213,-2.08447 3.09352,0 4.96556,1.84549 1.87205,1.84549 1.87205,4.70003 0,0.61074 -0.27881,1.84549 z m -10.03736,-2.49606 6.98366,0 q -0.3452,-3.12008 -3.452,-3.12008 -2.84126,0 -3.53166,3.12008 z m -10.93172,-2.96075 -1.64634,0 0,-2.66867 1.64634,0 0,-2.89436 3.31923,-1.22148 0,4.11584 3.90342,0 0,2.66867 -3.90342,0 0,6.22687 q 0,1.52685 0.47797,2.16414 0.47797,0.62402 1.67289,0.62402 1.19493,0 2.23052,-0.65057 l 0,3.05369 q -1.15509,0.39831 -3.29267,0.39831 -2.12431,0 -3.26612,-1.19493 -1.14182,-1.2082 -1.14182,-3.42544 l 0,-7.19609 z m -8.83397,5.2311 0,-3.12007 7.02349,0 0,3.12007 -7.02349,0 z m -12.36563,9.97097 2.09776,-2.589 q 1.73927,1.59323 3.87686,1.59323 1.43391,0 2.36329,-0.42486 0.92939,-0.42486 0.92939,-1.16837 0,-1.26131 -2.05793,-1.26131 -0.55763,0 -1.65961,0.13277 -1.10199,0.13277 -1.65962,0.13277 -3.42544,0 -3.42544,-2.45623 0,-0.70368 0.5709,-1.3808 0.57091,-0.67712 1.3277,-0.99577 -2.42968,-1.57995 -2.42968,-4.47432 0,-2.28363 1.67289,-3.77065 1.67289,-1.50029 4.11585,-1.50029 1.91187,0 3.19974,0.71696 l 1.30113,-1.51357 2.29691,2.08447 -1.57995,1.1551 q 0.82317,1.24803 0.82317,2.94747 0,2.42968 -1.48702,3.89014 -1.47374,1.44719 -3.73081,1.44719 -0.35848,0 -0.95594,-0.0664 l -0.54436,-0.0797 q -0.0929,0 -0.71695,0.29209 -0.61074,0.27882 -0.61074,0.58419 0,0.53107 0.91611,0.53107 0.41158,0 1.3808,-0.19915 0.96922,-0.19916 1.65962,-0.19916 4.84607,0 4.84607,3.89014 0,2.15086 -1.93843,3.37234 -1.93843,1.23475 -4.67348,1.23475 -3.26612,0 -5.90823,-1.92515 z m 3.31923,-12.87861 q 0,1.2613 0.6904,2.03137 0.70368,0.75678 1.88533,0.75678 1.18164,0 1.81894,-0.74351 0.63729,-0.7435 0.63729,-2.04464 0,-1.07543 -0.6904,-1.81894 -0.67712,-0.74351 -1.76583,-0.74351 -1.14182,0 -1.85877,0.71696 -0.71696,0.71695 -0.71696,1.84549 z m -7.14779,9.22746 0,-8.21842 q 0,-1.81894 -0.70368,-2.65538 -0.6904,-0.83645 -2.27035,-0.83645 -0.73023,0 -1.56668,0.41159 -0.82317,0.41158 -1.28786,1.02232 l 0,10.27634 -3.31923,0 0,-14.21959 2.38984,0 0.61074,1.3277 q 1.35425,-1.59323 3.99635,-1.59323 2.5359,0 3.99636,1.52684 1.47374,1.51357 1.47374,4.23534 l 0,8.72294 -3.31923,0 z m -13.73315,-1.42063 q -0.45142,0.7435 -1.57996,1.22147 -1.11526,0.4647 -2.33674,0.4647 -2.2969,0 -3.61132,-1.14182 -1.31441,-1.15509 -1.31441,-3.26612 0,-2.46951 1.84549,-3.86359 1.85877,-1.39407 5.27094,-1.39407 0.58418,0 1.3808,0.19915 0,-2.50934 -3.17319,-2.50934 -1.87204,0 -3.13335,0.62402 l -0.71695,-2.57572 q 1.71272,-0.82317 4.07601,-0.82317 3.25285,0 4.76641,1.48701 1.51357,1.47374 1.51357,5.60286 l 0,3.04042 q 0,2.84126 1.14182,3.57149 -0.41159,0.71695 -0.91611,0.87628 -0.50452,0.1726 -1.15509,0.1726 -0.71695,0 -1.28786,-0.53108 -0.57091,-0.53108 -0.77006,-1.15509 z m -0.31865,-5.27094 q -0.84972,-0.1726 -1.27458,-0.1726 -3.92997,0 -3.92997,2.57572 0,1.91188 2.21724,1.91188 2.98731,0 2.98731,-2.98731 l 0,-1.32769 z m -10.57325,6.69157 -4.18223,-6.43931 -1.59323,1.68617 0,4.75314 -3.31923,0 0,-19.51708 3.31923,-0.79661 0,11.55092 4.73986,-5.45682 3.99636,0 -4.80625,5.39043 5.78874,8.82916 -3.94325,0 z m -12.75065,0 -1.42064,-3.94325 -6.66501,0 -1.35425,3.94325 -3.83703,0 7.75373,-19.71623 1.51356,0 7.82011,19.71623 -3.81047,0 z m -4.76642,-13.76817 -2.33674,7.18281 4.67348,0 -2.33674,-7.18281 z" />
  </g>
</svg>
