<?xml version="1.0" encoding="UTF-8" standalone="no"?>
<!-- Created with Inkscape (http://www.inkscape.org/) -->

<svg
   xmlns:dc="http://purl.org/dc/elements/1.1/"
   xmlns:cc="http://creativecommons.org/ns#"
   xmlns:rdf="http://www.w3.org/1999/02/22-rdf-syntax-ns#"
   xmlns:svg="http://www.w3.org/2000/svg"
   xmlns="http://www.w3.org/2000/svg"
   xmlns:sodipodi="http://sodipodi.sourceforge.net/DTD/sodipodi-0.dtd"
   xmlns:inkscape="http://www.inkscape.org/namespaces/inkscape"
   width="414.73669"
   height="143.98582"
   viewBox="0 0 414.7367 143.98583"
   id="svg4529"
   version="1.1"
   inkscape:version="0.91 r13725"
   sodipodi:docname="akangtth3.svg">
  <defs
     id="defs4531" />
  <sodipodi:namedview
     id="base"
     pagecolor="#ffffff"
     bordercolor="#666666"
     borderopacity="1.0"
     inkscape:pageopacity="0.0"
     inkscape:pageshadow="2"
     inkscape:zoom="1.4"
     inkscape:cx="173.44038"
     inkscape:cy="114.98238"
     inkscape:document-units="px"
     inkscape:current-layer="layer1"
     showgrid="false"
     fit-margin-top="0"
     fit-margin-left="0"
     fit-margin-right="0"
     fit-margin-bottom="0"
     inkscape:window-width="1366"
     inkscape:window-height="714"
     inkscape:window-x="0"
     inkscape:window-y="283"
     inkscape:window-maximized="1"
     inkscape:snap-bbox="true"
     inkscape:bbox-nodes="false"
     units="px" />
  <metadata
     id="metadata4534">
    <rdf:RDF>
      <cc:Work
         rdf:about="">
        <dc:format>image/svg+xml</dc:format>
        <dc:type
           rdf:resource="http://purl.org/dc/dcmitype/StillImage" />
        <dc:title></dc:title>
      </cc:Work>
    </rdf:RDF>
  </metadata>
  <g
     inkscape:label="Layer 1"
     inkscape:groupmode="layer"
     id="layer1"
     transform="translate(147.0112,-391.96103)">
    <path
       inkscape:connector-curvature="0"
       id="path4516"
       style="font-style:normal;font-variant:normal;font-weight:bold;font-stretch:normal;font-size:27.19113541px;line-height:125%;font-family:'Trebuchet MS';-inkscape-font-specification:'Trebuchet MS Bold';letter-spacing:-2px;word-spacing:0px;display:inline;fill:none;fill-opacity:1;stroke:#1a1a1a;stroke-width:0.92835981;stroke-linecap:butt;stroke-linejoin:miter;stroke-miterlimit:4;stroke-dasharray:none;stroke-opacity:1"
       d="m 219.67708,535.31973 -3.4923,-4.47838 q 7.51872,-5.62877 7.51872,-8.83343 0,-1.23259 -0.86282,-2.42407 -3.90316,-1.88996 -3.90316,-5.3001 0,-2.46514 2.0543,-4.06749 2.05431,-1.64344 5.09466,-1.64344 2.8349,0 4.9303,2.17756 2.13646,2.13646 2.13646,4.9714 0,5.2179 -2.46516,9.4908 -2.42407,4.31403 -11.011,10.10715 z m -19.85938,-15.36612 0,-60.19079 10.68233,0 0,60.19079 -10.68233,0 z m -32.80143,-22.14528 0,22.14528 -10.68232,0 0,-60.1497 q 10.68232,-0.45195 12.49012,-0.45195 14.25679,0 20.83054,4.39618 6.61481,4.35509 6.61481,13.64052 0,20.70728 -24.405,20.70728 -1.8078,0 -4.84815,-0.28749 z m 0,-28.76012 0,19.26928 q 2.71168,0.28748 4.27293,0.28748 7.31328,0 10.68233,-2.42407 3.36905,-2.46516 3.36905,-7.97065 0,-9.36758 -15.07851,-9.36758 -1.68451,0 -3.2458,0.20548 z m -61.52042,-9.28539 10.6823,0 0,40.79825 q 0,4.84814 2.95819,7.88849 2.95818,3.04035 8.135,3.04035 5.79312,0 8.99781,-2.95819 3.2458,-2.99925 3.2458,-8.17606 l 0,-40.59284 10.68232,0 0,41.41456 q 0,9.28539 -6.24507,14.5444 -6.20395,5.25897 -16.59867,5.25897 -10.47692,0 -16.18784,-5.13572 -5.66984,-5.13575 -5.66984,-14.70875 l 0,-41.37346 z M 74.857071,458.9 q 2.465135,0 4.190739,1.7667 1.7667,1.7256 1.7667,4.19077 0,2.46514 -1.7667,4.23183 -1.725604,1.72561 -4.190739,1.72561 -2.465167,0 -4.231867,-1.72561 -1.725604,-1.76669 -1.725604,-4.23183 0,-2.46517 1.725604,-4.19077 1.7667,-1.7667 4.231867,-1.7667 z m -5.300099,61.05361 0,-35.58038 -5.628769,0 0,-8.42257 16.023489,0 0,44.00295 -10.39472,0 z m -17.887234,0 0,-25.43217 q 0,-5.62874 -2.177561,-8.21716 -2.136465,-2.58842 -7.025672,-2.58842 -2.25972,0 -4.848142,1.27368 -2.547327,1.27365 -3.985325,3.1636 l 0,31.80047 -10.271465,0 0,-44.00295 7.395437,0 1.889955,4.10858 q 4.190771,-4.93031 12.366866,-4.93031 7.847395,0 12.366836,4.72486 4.560536,4.68379 4.560536,13.1064 l 0,26.99342 -10.271465,0 z m -43.4837533,0 0,-27.56863 q 0,-8.66912 -7.76523448,-8.66912 -2.30081592,0 -4.43728122,1.35584 -2.1364653,1.35584 -2.999252,3.12254 l 0,31.75937 -10.271465,0 0,-29.17098 q 0,-3.24576 -2.01321,-5.13572 -2.013211,-1.93105 -5.669865,-1.93105 -1.931019,0 -4.231835,1.43803 -2.259721,1.438 -3.286858,3.1636 l 0,31.63612 -10.271465,0 0,-44.00295 7.066767,0 2.09537,3.86207 q 4.272931,-4.6838 11.052092,-4.6838 8.751307,0 13.1885577,4.76596 1.9310502,-2.17756 5.3822587,-3.45121 3.4512084,-1.31475 6.9024168,-1.31475 7.3543738,0 11.4218888,4.23184 4.10858,4.19077 4.10858,11.54514 l 0,29.0477 -10.2714653,0 z m -66.2042447,0.0412 0,-3.69775 q -2.17753,1.84886 -5.998535,3.16363 -3.820974,1.31474 -7.025672,1.31474 -15.325023,0 -15.325023,-16.27 l 0,-28.55467 10.271466,0 0,27.77402 q 0,8.4637 7.600883,8.4637 3.492304,0 6.491556,-1.80777 2.999283,-1.80779 3.985325,-4.19077 l 0,-30.23918 10.271465,0 0,44.04405 -10.271465,0 z m -45.20933,-60.43734 10.271469,-2.46513 0,49.46737 q 0,8.135 4.848111,9.69628 -2.382976,4.51944 -8.135,4.51944 -6.98458,0 -6.98458,-9.69628 l 0,-51.52168 z m -15.95624,56.00006 q -1.39691,2.30081 -4.88921,3.77991 -3.45121,1.43799 -7.23112,1.43799 -7.10783,0 -11.17534,-3.53339 -4.06752,-3.57447 -4.06752,-10.10712 0,-7.64198 5.71096,-11.95597 5.75202,-4.31403 16.31106,-4.31403 1.8078,0 4.27294,0.61628 0,-7.76524 -9.81951,-7.76524 -5.79312,0 -9.69626,1.93105 l -2.21865,-7.97065 q 5.3001,-2.54732 12.61337,-2.54732 10.06602,0 14.74981,4.6016 4.6838,4.56053 4.6838,17.33823 l 0,9.40868 q 0,8.79237 3.5334,11.05209 -1.27368,2.21863 -2.83494,2.71168 -1.56125,0.53411 -3.57446,0.53411 -2.21866,0 -3.98533,-1.64344 -1.7667,-1.64344 -2.383,-3.57446 z m -0.98604,-16.3111 q -2.62949,-0.53412 -3.94426,-0.53412 -12.16139,0 -12.16139,7.97065 0,5.91638 6.86132,5.91638 9.24433,0 9.24433,-9.24433 l 0,-4.10858 z m 322.20768,-87.00012 8.40998,0 13.08919,-17.38905 -11.88777,0 -9.6114,17.38905 z m -72.79309,0.87693 8.40998,0 13.08919,-17.38902 -11.88777,0 -9.6114,17.38902 z m 127.70403,42.28793 0,-27.11668 q 0,-4.06751 -2.54733,-6.53265 -2.5473,-2.46517 -6.65591,-2.46517 -2.54732,0 -5.13571,1.39694 -2.58843,1.35584 -3.69772,3.12251 l 0,31.59505 -10.43582,0 0,-60.39624 10.43582,-2.46514 0,21.65226 q 3.98532,-3.61556 10.9699,-3.61556 8.25825,0 12.81879,4.6016 4.56054,4.56054 4.56054,13.1064 l 0,27.11668 -10.31256,0 z m -31.32231,-18.85842 -31.4307,0 q 0.28748,5.259 3.61556,8.17609 3.32795,2.9171 8.95672,2.9171 7.0257,0 10.68233,-3.65666 l 3.98532,7.84743 q -5.42332,4.39618 -16.18781,4.39618 -10.06605,0 -15.94133,-5.87528 -5.83418,-5.91637 -5.83418,-16.47544 0,-10.39472 6.40939,-16.84522 6.45047,-6.45046 15.44828,-6.45046 9.573,0 15.36612,5.71093 5.79309,5.71093 5.79309,14.5444 0,1.88995 -0.86279,5.71093 z m -31.0609,-7.72414 21.61116,0 q -1.06823,-9.65519 -10.68233,-9.65519 -8.79237,0 -10.92883,9.65519 z m -33.8286,-9.16214 -5.09462,0 0,-8.25828 5.09462,0 0,-8.9567 10.27147,-3.77991 0,12.73661 12.07926,0 0,8.25828 -12.07926,0 0,19.26925 q 0,4.72489 1.47909,6.69701 1.47909,1.93105 5.17684,1.93105 3.69772,0 6.90242,-2.01321 l 0,9.44974 q -3.57446,1.23258 -10.1893,1.23258 -6.57375,0 -10.10712,-3.69775 -3.5334,-3.73881 -3.5334,-10.60013 l 0,-22.26854 z m -4.41107,16.88628 -31.4307,0 q 0.28748,5.259 3.61556,8.17609 3.32795,2.9171 8.95672,2.9171 7.02567,0 10.68233,-3.65666 l 3.98532,7.84743 q -5.42332,4.39618 -16.18784,4.39618 -10.06602,0 -15.9413,-5.87528 -5.83421,-5.91637 -5.83421,-16.47544 0,-10.39472 6.40939,-16.84522 6.45049,-6.45046 15.44831,-6.45046 9.573,0 15.36609,5.71093 5.79312,5.71093 5.79312,14.5444 0,1.88995 -0.86279,5.71093 z m -31.06094,-7.72414 21.61117,0 q -1.06824,-9.65519 -10.68233,-9.65519 -8.79237,0 -10.92884,9.65519 z m -33.828561,-9.16214 -5.094652,0 0,-8.25828 5.094652,0 0,-8.9567 10.271461,-3.77991 0,12.73661 12.07927,0 0,8.25828 -12.07927,0 0,19.26925 q 0,4.72489 1.4791,6.69701 1.47909,1.93105 5.17681,1.93105 3.69775,0 6.90242,-2.01321 l 0,9.44974 q -3.57447,1.23258 -10.18928,1.23258 -6.573743,0 -10.107111,-3.69775 -3.5334,-3.73881 -3.5334,-10.60013 l 0,-22.26854 z m -27.337008,16.18781 0,-9.65516 21.734419,0 0,9.65516 -21.734419,0 z m -38.265845,30.85549 6.491587,-8.01174 q 5.382228,4.9303 11.997069,4.9303 4.437282,0 7.313278,-1.31474 2.876028,-1.31475 2.876028,-3.61556 0,-3.90317 -6.368331,-3.90317 -1.725605,0 -5.135718,0.41086 -3.410144,0.41087 -5.135748,0.41087 -10.600136,0 -10.600136,-7.60089 0,-2.17756 1.766669,-4.27293 1.7667,-2.09537 4.108611,-3.08144 -7.518724,-4.88921 -7.518724,-13.84593 0,-7.06677 5.176813,-11.6684 5.176812,-4.6427 12.736632,-4.6427 5.916344,0 9.901699,2.21866 l 4.02639,-4.68379 7.107863,6.45046 -4.889207,3.57449 q 2.547326,3.86207 2.547326,9.12104 0,7.51873 -4.601632,12.03817 -4.560536,4.47838 -11.545113,4.47838 -1.109328,0 -2.958187,-0.20548 l -1.68454,-0.24663 q -0.287482,0 -2.218625,0.90388 -1.889955,0.86281 -1.889955,1.80779 0,1.64342 2.834932,1.64342 1.273648,0 4.272931,-0.61628 2.999283,-0.61631 5.135748,-0.61631 14.996322,0 14.996322,12.03817 0,6.6559 -5.998535,10.43581 -5.998535,3.82098 -14.462237,3.82098 -10.107114,0 -18.28321,-5.95744 z m 10.271466,-39.85328 q 0,3.90314 2.136465,6.28615 2.177561,2.34188 5.834215,2.34188 3.656624,0 5.628769,-2.30082 1.972115,-2.30079 1.972115,-6.32721 0,-3.32795 -2.136465,-5.62876 -2.09537,-2.30082 -5.464419,-2.30082 -3.533399,0 -5.752024,2.21866 -2.218656,2.21862 -2.218656,5.71092 z m -22.11907,28.55468 0,-25.43217 q 0,-5.62877 -2.17756,-8.21716 -2.1364656,-2.58842 -7.0256724,-2.58842 -2.2597205,0 -4.84814234,1.27368 -2.54732636,1.27365 -3.98532476,3.1636 l 0,31.80047 -10.2714655,0 0,-44.00298 7.3954379,0 1.8899548,4.10861 q 4.19077077,-4.93031 12.3668354,-4.93031 7.8474249,0 12.3668659,4.72486 4.560537,4.68379 4.560537,13.1064 l 0,26.99342 -10.271466,0 z m -42.49768,-4.39619 q -1.396934,2.30079 -4.889238,3.77988 -3.451208,1.43803 -7.231118,1.43803 -7.107832,0 -11.175347,-3.5334 -4.067485,-3.57446 -4.067485,-10.10711 0,-7.64198 5.710929,-11.95601 5.752024,-4.31399 16.311096,-4.31399 1.807764,0 4.27293,0.61627 0,-7.76523 -9.81954,-7.76523 -5.793088,0 -9.696253,1.93105 l -2.218625,-7.97065 q 5.300067,-2.54733 12.613345,-2.54733 10.066051,0 14.749812,4.6016 4.683791,4.56054 4.683791,17.33824 l 0,9.40868 q 0,8.79237 3.533399,11.05209 -1.273678,2.21862 -2.834932,2.71168 -1.561253,0.53411 -3.574463,0.53411 -2.218626,0 -3.985325,-1.64344 -1.7667,-1.64345 -2.382976,-3.57447 z m -0.986073,-16.31109 q -2.629486,-0.53412 -3.944229,-0.53412 -12.16142,0 -12.16142,7.97065 0,5.91638 6.861321,5.91638 9.244328,0 9.244328,-9.24433 l 0,-4.10858 z m -32.719267,20.70728 -12.942047,-19.92665 -4.930302,5.2179 0,14.70875 -10.271465,0 0,-60.39624 10.271465,-2.46514 0,35.7447 14.667651,-16.8863 12.366867,0 -14.873098,16.68086 17.913445,27.32212 -12.202516,0 z m -39.457302,0 -4.39622,-12.20252 -20.62509,0 -4.19077,12.20252 -11.87381,0 23.99417,-61.01252 4.68376,0 24.199584,61.01252 -11.791624,0 z m -14.74984,-42.60605 -7.23112,22.22744 14.46224,0 -7.23112,-22.22744 z" />
  </g>
</svg>
